0
SECTION
2
HEADER
9
$INSUNITS
70
4
9
$ACADVER
1
AC1014
9
$HANDSEED
5
FFFF
0
ENDSEC
0
SECTION
2
TABLES
0
TABLE
2
VPORT
5
8
100
AcDbSymbolTable
0
ENDTAB
0
TABLE
2
LTYPE
5
5
100
AcDbSymbolTable
0
LTYPE
5
14
100
AcDbSymbolTableRecord
100
AcDbLinetypeTableRecord
2
BYBLOCK
70
0
0
LTYPE
5
15
100
AcDbSymbolTableRecord
100
AcDbLinetypeTableRecord
2
BYLAYER
70
0
0
ENDTAB
0
TABLE
2
LAYER
5
2
100
AcDbSymbolTable
70
2
0
LAYER
5
50
100
AcDbSymbolTableRecord
100
AcDbLayerTableRecord
2
0
70
0
6
CONTINUOUS
0
ENDTAB
0
TABLE
2
STYLE
5
3
100
AcDbSymbolTable
70
1
0
STYLE
5
11
100
AcDbSymbolTableRecord
100
AcDbTextStyleTableRecord
2
STANDARD
70
0
0
ENDTAB
0
TABLE
2
VIEW
5
6
100
AcDbSymbolTable
70
0
0
ENDTAB
0
TABLE
2
UCS
5
7
100
AcDbSymbolTable
70
0
0
ENDTAB
0
TABLE
2
APPID
5
9
100
AcDbSymbolTable
70
2
0
APPID
5
12
100
AcDbSymbolTableRecord
100
AcDbRegAppTableRecord
2
ACAD
70
0
0
ENDTAB
0
TABLE
2
DIMSTYLE
5
A
100
AcDbSymbolTable
70
1
0
ENDTAB
0
TABLE
2
BLOCK_RECORD
5
1
100
AcDbSymbolTable
70
1
0
BLOCK_RECORD
5
1F
100
AcDbSymbolTableRecord
100
AcDbBlockTableRecord
2
*MODEL_SPACE
0
BLOCK_RECORD
5
1B
100
AcDbSymbolTableRecord
100
AcDbBlockTableRecord
2
*PAPER_SPACE
0
ENDTAB
0
ENDSEC
0
SECTION
2
BLOCKS
0
BLOCK
5
20
100
AcDbEntity
100
AcDbBlockBegin
2
*MODEL_SPACE
0
ENDBLK
5
21
100
AcDbEntity
100
AcDbBlockEnd
0
BLOCK
5
1C
100
AcDbEntity
100
AcDbBlockBegin
2
*PAPER_SPACE
0
ENDBLK
5
1D
100
AcDbEntity
100
AcDbBlockEnd
0
ENDSEC
0
SECTION
2
ENTITIES
0
LWPOLYLINE
5
100
100
AcDbEntity
8
0
100
AcDbPolyline
90
28
70
1
43
0.0
10
298.40005373915147
20
91.862492820923507
42
-0.41421356237309509
10
296.40005373915147
20
89.862492820923521
10
204.40005373915147
20
89.862492820923507
42
-0.41421356237309509
10
202.4000537391515
20
91.862492820923492
10
202.4000537391515
20
111.86249282092349
42
0.41421356237309509
10
200.4000537391515
20
113.86249282092351
10
117.40005373915147
20
113.86249282092351
42
0.41421356237309509
10
115.40005373915147
20
111.86249282092349
10
115.40005373915147
20
91.862492820923492
42
-0.41421356237309509
10
113.40005373915147
20
89.862492820923507
10
6.4000537391514811
20
89.862492820923478
42
-0.41421356237309509
10
4.4000537391514705
20
91.862492820923478
10
4.4000537391514705
20
253.86249282092351
42
-0.41421356237309509
10
6.4000537391514634
20
255.86249282092351
10
9.9000537391514598
20
255.86249282092351
42
0.41421356237309509
10
10.400053739151467
20
256.36249282092353
10
10.400053739151467
20
259.86249282092342
42
-0.4142135623730977
10
12.40005373915146
20
261.86249282092348
10
305.40005373915153
20
261.86249282092348
42
-0.41421356237309509
10
307.40005373915147
20
259.86249282092348
10
307.40005373915147
20
256.36249282092353
42
0.41421356237309509
10
307.90005373915153
20
255.86249282092351
10
311.40005373915147
20
255.86249282092353
42
-0.4142135623731002
10
313.40005373915153
20
253.86249282092348
10
313.40005373915147
20
109.86249282092348
42
-0.41421356237309509
10
311.40005373915147
20
107.86249282092349
10
300.40005373915153
20
107.86249282092349
42
0.41421356237309509
10
298.40005373915153
20
105.86249282092351
0
LWPOLYLINE
5
101
100
AcDbEntity
8
0
100
AcDbPolyline
90
28
70
1
43
0.0
10
298.40005373915147
20
91.862492820923507
42
-0.41421356237309509
10
296.40005373915147
20
89.862492820923521
10
204.40005373915147
20
89.862492820923507
42
-0.41421356237309509
10
202.4000537391515
20
91.862492820923492
10
202.4000537391515
20
111.86249282092349
42
0.41421356237309509
10
200.4000537391515
20
113.86249282092351
10
117.40005373915147
20
113.86249282092351
42
0.41421356237309509
10
115.40005373915147
20
111.86249282092349
10
115.40005373915145
20
91.862492820923492
42
-0.4142135623730977
10
113.40005373915147
20
89.862492820923507
10
6.4000537391514811
20
89.862492820923464
42
-0.41421356237309581
10
4.4000537391514705
20
91.862492820923507
10
4.4000537391514598
20
253.86249282092351
42
-0.4142135623730967
10
6.4000537391514634
20
255.86249282092351
10
9.9000537391514598
20
255.86249282092351
42
0.41421356237309509
10
10.400053739151467
20
256.36249282092353
10
10.400053739151474
20
259.86249282092348
42
-0.41421356237309409
10
12.40005373915146
20
261.86249282092348
10
305.40005373915153
20
261.86249282092348
42
-0.41421356237309509
10
307.40005373915147
20
259.86249282092348
10
307.40005373915147
20
256.36249282092353
42
0.41421356237309509
10
307.90005373915153
20
255.86249282092351
10
311.40005373915147
20
255.86249282092353
42
-0.4142135623731002
10
313.40005373915153
20
253.86249282092348
10
313.40005373915147
20
109.86249282092348
42
-0.41421356237309509
10
311.40005373915147
20
107.86249282092349
10
300.40005373915153
20
107.86249282092349
42
0.41421356237309509
10
298.40005373915147
20
105.86249282092351
0
ENDSEC
0
SECTION
2
OBJECTS
0
DICTIONARY
5
C
100
AcDbDictionary
3
ACAD_GROUP
350
D
3
ACAD_MLINESTYLE
350
17
0
DICTIONARY
5
D
100
AcDbDictionary
0
DICTIONARY
5
1A
330
C
100
AcDbDictionary
0
DICTIONARY
5
17
100
AcDbDictionary
0
ENDSEC
0
EOF
