0
SECTION
2
HEADER
9
$INSUNITS
70
4
9
$ACADVER
1
AC1014
9
$HANDSEED
5
FFFF
0
ENDSEC
0
SECTION
2
TABLES
0
TABLE
2
VPORT
5
8
100
AcDbSymbolTable
0
ENDTAB
0
TABLE
2
LTYPE
5
5
100
AcDbSymbolTable
0
LTYPE
5
14
100
AcDbSymbolTableRecord
100
AcDbLinetypeTableRecord
2
BYBLOCK
70
0
0
LTYPE
5
15
100
AcDbSymbolTableRecord
100
AcDbLinetypeTableRecord
2
BYLAYER
70
0
0
ENDTAB
0
TABLE
2
LAYER
5
2
100
AcDbSymbolTable
70
2
0
LAYER
5
50
100
AcDbSymbolTableRecord
100
AcDbLayerTableRecord
2
0
70
0
6
CONTINUOUS
0
ENDTAB
0
TABLE
2
STYLE
5
3
100
AcDbSymbolTable
70
1
0
STYLE
5
11
100
AcDbSymbolTableRecord
100
AcDbTextStyleTableRecord
2
STANDARD
70
0
0
ENDTAB
0
TABLE
2
VIEW
5
6
100
AcDbSymbolTable
70
0
0
ENDTAB
0
TABLE
2
UCS
5
7
100
AcDbSymbolTable
70
0
0
ENDTAB
0
TABLE
2
APPID
5
9
100
AcDbSymbolTable
70
2
0
APPID
5
12
100
AcDbSymbolTableRecord
100
AcDbRegAppTableRecord
2
ACAD
70
0
0
ENDTAB
0
TABLE
2
DIMSTYLE
5
A
100
AcDbSymbolTable
70
1
0
ENDTAB
0
TABLE
2
BLOCK_RECORD
5
1
100
AcDbSymbolTable
70
1
0
BLOCK_RECORD
5
1F
100
AcDbSymbolTableRecord
100
AcDbBlockTableRecord
2
*MODEL_SPACE
0
BLOCK_RECORD
5
1B
100
AcDbSymbolTableRecord
100
AcDbBlockTableRecord
2
*PAPER_SPACE
0
ENDTAB
0
ENDSEC
0
SECTION
2
BLOCKS
0
BLOCK
5
20
100
AcDbEntity
100
AcDbBlockBegin
2
*MODEL_SPACE
0
ENDBLK
5
21
100
AcDbEntity
100
AcDbBlockEnd
0
BLOCK
5
1C
100
AcDbEntity
100
AcDbBlockBegin
2
*PAPER_SPACE
0
ENDBLK
5
1D
100
AcDbEntity
100
AcDbBlockEnd
0
ENDSEC
0
SECTION
2
ENTITIES
0
LWPOLYLINE
5
100
100
AcDbEntity
8
0
100
AcDbPolyline
90
4
70
1
43
0.0
10
32.5
20
-64.699999999999989
10
36.5
20
-64.699999999999989
42
0.99999999999999989
10
36.5
20
-61.299999999999997
10
32.5
20
-61.300000000000018
42
0.99999999999999989
0
LWPOLYLINE
5
101
100
AcDbEntity
8
0
100
AcDbPolyline
90
4
70
1
43
0.0
10
32.5
20
-1.7000000000000002
10
36.5
20
-1.7000000000000002
42
0.99999999999999989
10
36.5
20
1.7000000000000002
10
32.5
20
1.7000000000000002
42
0.99999999999999989
0
LWPOLYLINE
5
102
100
AcDbEntity
8
0
100
AcDbPolyline
90
4
70
1
43
0.0
10
32.5
20
75.800000000000011
10
36.5
20
75.800000000000011
42
0.99999999999999989
10
36.5
20
79.200000000000003
10
32.5
20
79.199999999999989
42
0.99999999999999989
0
LWPOLYLINE
5
103
100
AcDbEntity
8
0
100
AcDbPolyline
90
4
70
1
43
0.0
10
-36.5
20
75.800000000000011
10
-32.5
20
75.800000000000011
42
0.99999999999999989
10
-32.5
20
79.200000000000003
10
-36.5
20
79.199999999999989
42
0.99999999999999989
0
LWPOLYLINE
5
104
100
AcDbEntity
8
0
100
AcDbPolyline
90
4
70
1
43
0.0
10
-36.5
20
-1.7000000000000002
10
-32.5
20
-1.7000000000000002
42
0.99999999999999989
10
-32.5
20
1.7000000000000002
10
-36.5
20
1.7000000000000002
42
0.99999999999999989
0
LWPOLYLINE
5
105
100
AcDbEntity
8
0
100
AcDbPolyline
90
4
70
1
43
0.0
10
-36.5
20
-64.699999999999989
10
-32.5
20
-64.699999999999989
42
0.99999999999999989
10
-32.5
20
-61.299999999999997
10
-36.5
20
-61.300000000000018
42
0.99999999999999989
0
LWPOLYLINE
5
106
100
AcDbEntity
8
0
100
AcDbPolyline
90
4
70
1
43
0.0
10
32.5
20
19.251677191292401
10
36.5
20
19.251677191292401
42
0.99999999999999989
10
36.5
20
22.6516771912924
10
32.5
20
22.6516771912924
42
0.99999999999999989
0
LWPOLYLINE
5
107
100
AcDbEntity
8
0
100
AcDbPolyline
90
4
70
1
43
0.0
10
32.5
20
40.251677191292401
10
36.5
20
40.251677191292401
42
0.99999999999999989
10
36.5
20
43.6516771912924
10
32.5
20
43.6516771912924
42
0.99999999999999989
0
CIRCLE
5
108
100
AcDbEntity
8
0
100
AcDbCircle
10
-10
20
-63.000000000000007
30
0
40
1.7000000000000004
210
0
220
-0
230
1
0
CIRCLE
5
109
100
AcDbEntity
8
0
100
AcDbCircle
10
10
20
-63.000000000000007
30
0
40
1.7000000000000004
210
0
220
-0
230
1
0
LWPOLYLINE
5
110
100
AcDbEntity
8
0
100
AcDbPolyline
90
24
70
1
43
0.0
10
163.50000000000006
20
68
42
-0.41421356237311407
10
165.00000000000003
20
66.499999999999986
10
165
20
-83
42
-0.41421356237309509
10
163
20
-85
10
-163
20
-85
42
-0.41421356237309509
10
-165
20
-83
10
-165
20
66.5
42
-0.4142135623731002
10
-163.5
20
68.000000000000028
10
-140.5
20
68.000000000000014
42
0.41421356237309509
10
-139.00000000000003
20
69.500000000000014
10
-139
20
83.5
42
-0.4142135623730881
10
-137.5
20
85
10
10
20
85
42
-0.41421356237309509
10
12.000000000000002
20
83
10
12
20
82.000000000000014
42
0.41421356237309309
10
14.000000000000002
20
80
10
18
20
80
42
0.41421356237309409
10
20
20
82.000000000000014
10
20.000000000000007
20
83
42
-0.4142135623730937
10
21.999999999999993
20
85
10
137.50000000000006
20
85
42
-0.41421356237308121
10
139.00000000000006
20
83.500000000000014
10
139.00000000000006
20
69.5
42
0.41421356237309509
10
140.50000000000006
20
67.999999999999986
0
ENDSEC
0
SECTION
2
OBJECTS
0
DICTIONARY
5
C
100
AcDbDictionary
3
ACAD_GROUP
350
D
3
ACAD_MLINESTYLE
350
17
0
DICTIONARY
5
D
100
AcDbDictionary
0
DICTIONARY
5
1A
330
C
100
AcDbDictionary
0
DICTIONARY
5
17
100
AcDbDictionary
0
ENDSEC
0
EOF
